<svg width="20" height="11" viewBox="0 0 10 10" fill="none" xmlns="http://www.w3.org/2000/svg">
<path d="M0.0568182 9V0.272727H1.07955L5 6.97159H5.08523V0.272727H6.125V9H5.10227L1.19886 2.35227H1.11364V9H0.0568182ZM7.19886 6.35795V5.48864H10.9148V6.35795H7.19886ZM9.05682 4.73864C8.63636 4.73864 8.27273 4.65483 7.96591 4.48722C7.66193 4.3196 7.42614 4.08523 7.25852 3.78409C7.09375 3.48295 7.01136 3.13068 7.01136 2.72727V2.14773C7.01136 1.74432 7.09375 1.39205 7.25852 1.09091C7.4233 0.789772 7.65767 0.555397 7.96165 0.387784C8.26563 0.22017 8.625 0.136364 9.03977 0.136364C9.46023 0.136364 9.82102 0.22017 10.1222 0.387784C10.4261 0.555397 10.6591 0.789772 10.821 1.09091C10.9858 1.39205 11.0682 1.74432 11.0682 2.14773V2.72727C11.0682 3.13068 10.9872 3.48295 10.8253 3.78409C10.6634 4.08523 10.4318 4.3196 10.1307 4.48722C9.82955 4.65483 9.47159 4.73864 9.05682 4.73864ZM9.05682 3.88636C9.3892 3.88636 9.63636 3.78125 9.7983 3.57102C9.96307 3.35795 10.0455 3.0767 10.0455 2.72727V2.14773C10.0455 1.80682 9.96307 1.53125 9.7983 1.32102C9.63352 1.1108 9.38068 1.00568 9.03977 1.00568C8.69886 1.00568 8.44602 1.1108 8.28125 1.32102C8.11648 1.53125 8.03409 1.80682 8.03409 2.14773V2.72727C8.03409 3.0767 8.11648 3.35795 8.28125 3.57102C8.44886 3.78125 8.70739 3.88636 9.05682 3.88636ZM16.3501 9V2.45455" fill="#84919A"/>
</svg>
